<mxfile host="app.diagrams.net" modified="2024-01-09T14:41:06.380Z" agent="Mozilla/5.0 (Windows NT 10.0; Win64; x64) AppleWebKit/537.36 (KHTML, like Gecko) Chrome/120.0.0.0 Safari/537.36" etag="F9p4ja3B97PlbuY9JRLj" version="22.1.17" type="github">
  <diagram name="Page-1" id="vxib_UCaSuWz3wIrXnwq">
    <mxGraphModel dx="1434" dy="772" grid="1" gridSize="10" guides="1" tooltips="1" connect="1" arrows="1" fold="1" page="1" pageScale="1" pageWidth="827" pageHeight="1169" math="0" shadow="0">
      <root>
        <mxCell id="0" />
        <mxCell id="1" parent="0" />
        <mxCell id="saF-wMCrBeQYv67G9Jrz-6" value="" style="edgeStyle=orthogonalEdgeStyle;rounded=0;orthogonalLoop=1;jettySize=auto;html=1;" edge="1" parent="1" source="saF-wMCrBeQYv67G9Jrz-1" target="saF-wMCrBeQYv67G9Jrz-5">
          <mxGeometry relative="1" as="geometry" />
        </mxCell>
        <mxCell id="saF-wMCrBeQYv67G9Jrz-8" value="" style="edgeStyle=orthogonalEdgeStyle;rounded=0;orthogonalLoop=1;jettySize=auto;html=1;" edge="1" parent="1" source="saF-wMCrBeQYv67G9Jrz-1" target="saF-wMCrBeQYv67G9Jrz-7">
          <mxGeometry relative="1" as="geometry" />
        </mxCell>
        <mxCell id="saF-wMCrBeQYv67G9Jrz-10" value="" style="edgeStyle=orthogonalEdgeStyle;rounded=0;orthogonalLoop=1;jettySize=auto;html=1;" edge="1" parent="1" source="saF-wMCrBeQYv67G9Jrz-1" target="saF-wMCrBeQYv67G9Jrz-9">
          <mxGeometry relative="1" as="geometry" />
        </mxCell>
        <mxCell id="saF-wMCrBeQYv67G9Jrz-1" value="Actor" style="shape=umlActor;verticalLabelPosition=bottom;verticalAlign=top;html=1;outlineConnect=0;" vertex="1" parent="1">
          <mxGeometry x="60" y="165" width="100" height="170" as="geometry" />
        </mxCell>
        <mxCell id="saF-wMCrBeQYv67G9Jrz-5" value="Créer événement&lt;br&gt;(Si admin)" style="whiteSpace=wrap;html=1;verticalAlign=top;" vertex="1" parent="1">
          <mxGeometry x="430" y="220" width="120" height="60" as="geometry" />
        </mxCell>
        <mxCell id="saF-wMCrBeQYv67G9Jrz-7" value="Voir les événements&lt;br&gt;S&#39;inscrire" style="whiteSpace=wrap;html=1;verticalAlign=top;" vertex="1" parent="1">
          <mxGeometry x="430" y="330" width="120" height="60" as="geometry" />
        </mxCell>
        <mxCell id="saF-wMCrBeQYv67G9Jrz-9" value="Afficher ses&lt;br&gt;statistiques&lt;br&gt;(Victoires, poles etc...)" style="whiteSpace=wrap;html=1;verticalAlign=top;" vertex="1" parent="1">
          <mxGeometry x="430" y="90" width="120" height="80" as="geometry" />
        </mxCell>
        <mxCell id="saF-wMCrBeQYv67G9Jrz-12" value="GET" style="text;html=1;align=center;verticalAlign=middle;resizable=0;points=[];autosize=1;strokeColor=none;fillColor=none;" vertex="1" parent="1">
          <mxGeometry x="550" y="90" width="50" height="30" as="geometry" />
        </mxCell>
        <mxCell id="saF-wMCrBeQYv67G9Jrz-13" value="SET" style="text;html=1;align=center;verticalAlign=middle;resizable=0;points=[];autosize=1;strokeColor=none;fillColor=none;" vertex="1" parent="1">
          <mxGeometry x="550" y="220" width="50" height="30" as="geometry" />
        </mxCell>
        <mxCell id="saF-wMCrBeQYv67G9Jrz-14" value="GET" style="text;html=1;align=center;verticalAlign=middle;resizable=0;points=[];autosize=1;strokeColor=none;fillColor=none;" vertex="1" parent="1">
          <mxGeometry x="550" y="330" width="50" height="30" as="geometry" />
        </mxCell>
      </root>
    </mxGraphModel>
  </diagram>
</mxfile>
